<?xml version="1.0" standalone="no"?>
<!DOCTYPE svg PUBLIC "-//W3C//DTD SVG 20010904//EN"
 "http://www.w3.org/TR/2001/REC-SVG-20010904/DTD/svg10.dtd">
<svg version="1.0" xmlns="http://www.w3.org/2000/svg"
 width="240.000000pt" height="240.000000pt" viewBox="0 0 240.000000 240.000000"
 preserveAspectRatio="xMidYMid meet">
<metadata>
Created by potrace 1.14, written by Peter Selinger 2001-2017
</metadata>
<g transform="translate(0.000000,240.000000) scale(0.100000,-0.100000)"
fill="#000000" stroke="none">
<path d="M650 1820 c0 -52 4 -79 10 -75 6 3 10 33 10 65 l0 59 73 3 c99 4 92
22 -10 26 l-83 3 0 -81z"/>
<path d="M1612 1888 c3 -9 31 -14 81 -16 l77 -3 0 -69 c0 -40 4 -70 10 -70 6
0 10 35 10 85 l0 85 -91 0 c-68 0 -90 -3 -87 -12z"/>
<path d="M1040 1812 c-96 -26 -180 -50 -187 -55 -8 -5 -11 -42 -10 -120 2
-140 21 -156 25 -22 3 103 2 102 65 84 l37 -10 0 -80 c0 -77 -1 -81 -30 -106
-39 -32 -41 -83 -5 -118 13 -14 28 -25 34 -25 7 0 31 -51 31 -66 0 -2 -82 -5
-182 -6 -134 -2 -182 -6 -186 -15 -3 -10 39 -13 188 -13 l191 0 50 -42 c65
-57 64 -72 -7 -93 -102 -29 -174 -130 -174 -243 0 -67 24 -48 31 25 7 72 36
123 91 163 61 45 90 47 126 11 27 -27 37 -31 87 -31 50 0 60 4 88 31 28 29 33
30 66 20 48 -14 107 -64 130 -110 11 -20 22 -62 26 -94 9 -72 25 -74 25 -4 0
106 -74 203 -177 233 -30 9 -53 21 -53 29 0 7 16 23 35 35 19 12 43 32 54 46
19 24 19 24 216 24 153 0 196 3 193 13 -4 9 -52 13 -186 15 l-182 2 6 28 c3
15 13 32 22 37 71 45 81 96 29 150 -32 33 -33 37 -30 102 2 37 5 73 8 80 2 6
22 14 43 18 22 3 48 13 59 20 16 12 16 15 3 29 -12 12 -214 69 -355 100 -11 3
-99 -16 -195 -42z m370 -31 c79 -20 140 -40 134 -43 -5 -3 -79 -23 -166 -44
l-156 -38 -154 39 c-84 21 -156 41 -161 45 -11 10 304 89 333 84 15 -3 91 -22
170 -43z m-295 -129 l110 -29 105 28 c58 16 109 28 113 29 4 0 7 -33 5 -72
l-3 -73 -222 -3 -223 -2 0 75 c0 41 1 75 3 75 1 0 52 -13 112 -28z m346 -152
c64 -18 70 -90 11 -112 -22 -9 -31 -21 -40 -55 l-12 -43 -193 0 -194 0 -11 25
c-7 14 -12 34 -12 44 0 12 -10 21 -25 25 -14 4 -32 18 -41 32 -23 34 -6 70 38
83 44 12 434 13 479 1z m-101 -271 c-77 -65 -200 -65 -273 1 l-32 29 170 0
170 0 -35 -30z m-117 -72 c53 1 57 0 57 -21 0 -36 -36 -61 -85 -61 -52 0 -85
26 -85 67 0 26 2 28 28 21 15 -4 53 -7 85 -6z"/>
<path d="M652 828 l3 -83 84 0 c59 0 86 4 89 13 3 9 -17 12 -77 12 l-81 0 0
70 c0 42 -4 70 -10 70 -7 0 -10 -30 -8 -82z"/>
<path d="M1770 835 l0 -65 -76 0 c-56 0 -75 -3 -71 -12 2 -9 28 -13 83 -13
l79 0 3 78 c2 48 -1 77 -8 77 -6 0 -10 -27 -10 -65z"/>
<path d="M360 595 c0 -33 2 -35 35 -35 24 0 35 5 35 15 0 13 92 15 770 15 678
0 770 -2 770 -15 0 -10 11 -15 35 -15 33 0 35 2 35 35 0 33 -2 35 -35 35 -24
0 -35 -5 -35 -15 0 -13 -92 -15 -770 -15 -678 0 -770 2 -770 15 0 10 -11 15
-35 15 -33 0 -35 -2 -35 -35z m58 -3 c3 -18 -1 -22 -22 -22 -19 0 -26 5 -26
18 0 39 43 43 48 4z m1610 0 c3 -18 -1 -22 -22 -22 -19 0 -26 5 -26 18 0 39
43 43 48 4z"/>
<path d="M643 492 c-20 -3 -23 -9 -23 -53 0 -49 0 -49 33 -48 31 2 31 2 4 6
-35 5 -33 34 3 44 l25 7 -27 1 c-17 1 -28 7 -28 15 0 9 12 16 28 18 15 2 23 5
17 9 -5 3 -20 3 -32 1z"/>
<path d="M707 494 c-4 -4 -7 -29 -7 -56 0 -46 1 -48 29 -48 51 0 77 45 49 83
-15 18 -60 32 -71 21z m58 -54 c0 -31 -3 -35 -27 -38 -27 -3 -28 -1 -28 38 0
39 1 41 28 38 24 -3 27 -7 27 -38z"/>
<path d="M1017 494 c-12 -13 -8 -102 6 -107 32 -11 66 20 50 46 -4 7 -6 22 -4
35 1 12 -2 22 -7 22 -6 0 -17 2 -24 5 -8 3 -17 2 -21 -1z m41 -26 c-7 -19 -38
-22 -38 -4 0 10 9 16 21 16 12 0 19 -5 17 -12z m0 -51 c2 -12 -3 -17 -17 -17
-15 0 -21 6 -21 21 0 25 33 22 38 -4z"/>
<path d="M1298 489 c-26 -14 -22 -38 7 -51 34 -15 32 -38 -2 -38 -20 0 -24 -3
-14 -9 7 -5 22 -6 32 -4 26 7 25 50 -1 58 -26 8 -26 35 1 35 11 0 17 5 14 10
-8 12 -15 12 -37 -1z"/>
<path d="M1453 493 c-16 -6 -18 -103 -3 -103 6 0 10 9 10 20 0 11 7 20 15 20
8 0 15 -9 15 -20 0 -11 5 -20 10 -20 12 0 13 10 1 29 -6 9 -5 21 2 33 10 16 9
22 -7 34 -21 15 -24 15 -43 7z m35 -30 c-5 -25 -28 -28 -28 -4 0 12 6 21 16
21 9 0 14 -7 12 -17z"/>
<path d="M1540 480 c-11 -11 -20 -29 -20 -40 0 -20 32 -60 48 -60 23 0 52 34
52 60 0 18 -8 34 -22 44 -29 20 -34 20 -58 -4z m60 -20 c15 -28 -4 -62 -33
-58 -22 3 -34 35 -23 64 8 21 44 17 56 -6z"/>
<path d="M800 440 c0 -27 5 -50 10 -50 6 0 10 23 10 50 0 28 -4 50 -10 50 -5
0 -10 -22 -10 -50z"/>
<path d="M843 483 c13 -3 17 -15 17 -49 0 -24 5 -44 10 -44 6 0 10 20 10 44 0
34 4 46 18 49 9 3 -3 5 -28 5 -25 0 -37 -2 -27 -5z"/>
<path d="M930 465 c-5 -14 -12 -38 -16 -53 -4 -23 -3 -24 6 -9 14 22 46 22 54
1 4 -9 9 -15 11 -12 8 7 -26 98 -36 98 -5 0 -14 -11 -19 -25z m30 -21 c0 -8
-6 -14 -14 -14 -9 0 -12 7 -9 20 6 22 23 18 23 -6z"/>
<path d="M1098 440 c4 -47 6 -50 30 -49 24 2 24 2 5 6 -20 4 -23 11 -23 49 0
24 -3 44 -7 44 -5 0 -6 -22 -5 -50z"/>
<path d="M1170 440 l0 -50 33 1 c28 2 29 2 6 6 -21 3 -26 9 -22 24 3 11 15 20
27 20 20 1 20 2 1 6 -33 9 -37 27 -7 34 26 6 26 7 -5 8 -33 1 -33 1 -33 -49z"/>
<path d="M1363 483 c13 -3 17 -15 17 -49 0 -24 5 -44 10 -44 6 0 10 20 10 44
0 34 4 46 18 49 9 3 -3 5 -28 5 -25 0 -37 -2 -27 -5z"/>
<path d="M1642 440 c0 -30 2 -46 5 -35 8 33 19 37 33 10 7 -14 17 -25 22 -25
5 0 1 13 -8 30 -17 28 -17 30 1 50 10 11 14 20 8 20 -5 0 -18 -9 -29 -21 l-19
-21 -6 24 c-5 14 -7 3 -7 -32z"/>
<path d="M1730 440 l0 -50 33 1 c30 2 30 2 5 6 -35 5 -39 40 -5 46 l22 4 -22
2 c-13 0 -23 7 -23 15 0 8 10 17 23 19 19 4 18 4 -5 6 -27 1 -28 -1 -28 -49z"/>
</g>
</svg>
